<?xml version="1.0" standalone="no"?>
<!DOCTYPE svg PUBLIC "-//W3C//DTD SVG 20010904//EN"
 "http://www.w3.org/TR/2001/REC-SVG-20010904/DTD/svg10.dtd">
<svg version="1.0" xmlns="http://www.w3.org/2000/svg"
 width="1320.000000pt" height="1320.000000pt" viewBox="0 0 1320.000000 1320.000000"
 preserveAspectRatio="xMidYMid meet">
<metadata>
Created by potrace 1.14, written by Peter Selinger 2001-2017
</metadata>
<g transform="translate(0.000000,1320.000000) scale(0.100000,-0.100000)"
fill="#000000" stroke="none">
<path d="M9450 10874 c-651 -59 -1048 -163 -1520 -398 -744 -372 -1318 -956
-1724 -1756 -282 -555 -469 -1214 -516 -1824 -13 -169 -13 -646 0 -817 115
-1479 914 -2718 2150 -3335 416 -208 849 -335 1330 -390 183 -21 627 -29 801
-15 394 33 869 130 1156 237 325 121 717 325 988 514 330 230 702 599 999 989
l87 115 -28 26 c-51 49 -498 455 -514 468 -14 10 -31 -7 -130 -131 -321 -402
-721 -722 -1194 -954 -324 -159 -619 -255 -940 -305 -119 -19 -182 -22 -415
-23 -296 0 -387 9 -594 61 -284 71 -538 199 -771 387 -117 94 -308 295 -406
427 -390 523 -622 1234 -689 2109 -13 170 -13 708 0 866 48 588 177 1107 380
1531 230 481 503 808 890 1065 337 224 739 332 1184 316 943 -33 1557 -560
1823 -1567 20 -74 46 -189 58 -255 l22 -120 381 -3 382 -2 -2 1357 -3 1358
-439 3 c-242 1 -443 -1 -447 -5 -4 -5 3 -114 15 -243 13 -129 23 -236 22 -237
-1 -2 -94 44 -207 100 -301 152 -482 219 -939 352 -320 92 -356 97 -785 100
-198 1 -380 1 -405 -1z"/>
<path d="M1590 10244 l0 -446 138 6 c75 3 238 8 362 11 124 3 255 8 292 11 37
3 71 3 76 0 5 -3 6 -28 1 -58 -31 -205 -33 -334 -39 -3123 -6 -2632 -7 -2817
-24 -2915 -58 -344 -199 -526 -433 -562 -139 -22 -331 46 -397 139 l-29 42 31
69 c57 122 75 219 70 357 -9 193 -51 327 -154 482 -67 101 -135 162 -228 208
-104 51 -174 66 -331 72 -343 13 -550 -69 -708 -282 -152 -204 -225 -451 -214
-719 7 -164 32 -269 97 -401 60 -121 121 -203 233 -314 204 -201 487 -352 809
-431 261 -64 608 -84 888 -51 572 66 998 257 1340 600 420 421 629 981 721
1926 9 85 14 738 19 2220 7 2253 5 2170 56 2368 36 143 130 283 234 349 82 52
261 96 463 114 l77 6 0 384 0 384 -1675 0 -1675 0 0 -446z"/>
</g>
</svg>
