<svg xmlns="http://www.w3.org/2000/svg" viewBox="0 0 502.09 503.23"><defs><style>.a{fill:#231f20;}</style></defs><path class="a" d="M496.08,250.23c0,27-2.42,52.32-10.32,76.67-8.2,25.25-22.27,46.47-37.56,67.48-15.45,21.22-24.83,50.13-46.05,65.57-21,15.29-50.56,17.73-75.81,25.92-24.35,7.91-49.57,22.6-76.56,22.6s-53.6-10.42-78-18.32c-25.24-8.2-50-19.62-71-34.91C79.61,439.8,70,413.25,54.58,392c-15.29-21-33-39.76-41.17-65C5.5,302.67-6,277.22-6,250.23s18.78-50.09,26.69-74.44c8.2-25.25,12.92-50.5,28.22-71.51C64.33,83.06,77.65,58,98.87,42.53c21-15.3,48.55-21.43,73.79-29.63C197,5,222.78,5.24,249.78,5.24s51.92,2.31,76.28,10.22c25.24,8.19,54.43,10.65,75.44,25.95,21.22,15.44,30.36,44.1,45.81,65.32,15.29,21,32.56,40.83,40.76,66.07C496,197.16,496.08,223.24,496.08,250.23Z" transform="translate(6.02 -5.24)"/></svg>