<?xml version="1.0" encoding="UTF-8"?>
<svg xmlns="http://www.w3.org/2000/svg" version="1.1" viewBox="0 0 512 512">
  <defs>
    <style>
      .cls-1 {
        fill: #0d1821;
      }

      .cls-2 {
        fill: #aab8a1;
      }
    </style>
  </defs>
  <!-- Generator: Adobe Illustrator 28.7.1, SVG Export Plug-In . SVG Version: 1.2.0 Build 142)  -->
  <g>
    <g id="Layer_1">
      <rect class="cls-1" x=".4" y=".4" width="512" height="512" rx="53.6" ry="53.6"/>
      <path class="cls-2" d="M120.9,332.8c-6.5,0-12.5-1.2-17.9-3.5-5.4-2.3-9.8-5.5-13-9.5s-4.9-8.6-4.9-13.8,1.5-10.1,4.4-14.2c2.9-4.2,7.2-6.3,12.9-6.5,6.3-.3,10.9,1.2,13.6,4.6,2.8,3.4,4.2,7.3,4.4,11.6.2,1.3,0,2.8-.4,4.5-.4,1.7-1,3.2-1.9,4.8.8,1.7,2.1,2.8,3.9,3.2s3,.8,3.9.8c3.5,0,6.2-1.5,8.1-4.6,1.9-3.1,2.9-8.1,2.9-15.1v-100.2c0-4.5,0-8.8.2-13,.2-4.2.4-7.3.8-9.5-2.7.2-6,.3-10,.4-4,0-6.9.2-8.8.4v-19.2h71.8v16.5c-3.7.2-6.8.7-9.5,1.5-2.7.8-4.7,2.7-6.1,5.6-1.4,2.9-2.1,7.8-2.1,14.6v73.2c0,24-4.5,41.2-13.5,51.8s-21.9,15.8-38.8,15.8Z"/>
      <path class="cls-2" d="M339.1,209.8c-2.2-13.8-6.8-24.2-13.9-31.2-7.1-7-16.5-10.6-28.1-10.8-8.7,0-16.2,2-22.8,6s-11.9,9.3-16.1,16c-4.3,6.7-7.4,14.2-9.5,22.8-2.1,8.5-3.1,17.2-3.1,26.2,0,14.3,2,27,6.1,38.1,4.1,11.1,10,19.8,17.9,26.1,7.8,6.3,17.3,9.5,28.5,9.5s20.9-2.7,31.2-8.1c10.3-5.4,19-13,26-22.6l12,11c-8.2,11.2-16.8,19.6-25.8,25.4s-17.8,9.6-26.4,11.6c-8.6,2-16.3,3-23.1,3-12.8,0-24.5-2.3-35-6.9-10.5-4.6-19.5-10.9-27.1-19-7.6-8.1-13.4-17.5-17.5-28.2-4.1-10.8-6.1-22.4-6.1-34.9s1.8-22.6,5.5-33.8c3.7-11.2,9.1-21.3,16.4-30.4,7.2-9.1,16.4-16.3,27.4-21.8,11-5.4,23.8-8.1,38.3-8.1s13.6,1,21.4,3.1c7.8,2.1,15,5.1,21.9,9.1l-1-10.5h19.2v58.2h-16.2Z"/>
      <path class="cls-2" d="M398.9,332.8c-5.3,0-9.7-1.9-13.1-5.8-3.4-3.8-5.1-8.4-5.1-13.8s1.8-9.9,5.5-13.8c3.7-3.8,7.9-5.8,12.8-5.8s9.5,1.9,12.9,5.8c3.4,3.8,5.1,8.4,5.1,13.8s-1.6,9.9-4.9,13.8-7.6,5.8-13.1,5.8Z"/>
    </g>
  </g>
</svg>