<?xml version="1.0" encoding="UTF-8"?><svg id="a" xmlns="http://www.w3.org/2000/svg" viewBox="0 0 500 500"><rect width="500" height="500" style="fill:#0d1821;"/><path d="M124.82,358.53c-7.59,0-14.55-1.36-20.87-4.09-6.33-2.72-11.38-6.42-15.18-11.09-3.79-4.67-5.69-10.02-5.69-16.05s1.7-11.77,5.11-16.63c3.4-4.86,8.41-7.39,15.03-7.59,7.39-.39,12.7,1.41,15.91,5.4,3.21,3.99,4.91,8.51,5.11,13.57.19,1.56.05,3.31-.44,5.25-.49,1.95-1.22,3.79-2.19,5.55.97,1.95,2.48,3.21,4.52,3.79,2.04.58,3.55.88,4.52.88,4.09,0,7.25-1.8,9.48-5.4,2.23-3.6,3.36-9.48,3.36-17.66v-117.03c0-5.25.1-10.31.29-15.18.19-4.86.48-8.56.88-11.09-3.11.2-7,.34-11.67.44-4.67.1-8.08.25-10.21.44v-22.47h83.76v19.26c-4.28.2-7.98.78-11.09,1.75-3.11.98-5.5,3.16-7.15,6.57-1.66,3.41-2.48,9.1-2.48,17.07v85.51c0,28.02-5.25,48.16-15.76,60.41-10.51,12.26-25.59,18.39-45.24,18.39Z" style="fill:#f0f4ef;"/><path d="M379.6,214.94c-2.53-16.15-7.93-28.31-16.2-36.48-8.27-8.17-19.21-12.35-32.83-12.55-10.12,0-18.97,2.33-26.56,7-7.59,4.67-13.86,10.9-18.82,18.68-4.96,7.78-8.66,16.64-11.09,26.56-2.44,9.92-3.65,20.14-3.65,30.64,0,16.74,2.38,31.57,7.15,44.51,4.77,12.94,11.72,23.11,20.87,30.5,9.14,7.4,20.23,11.09,33.27,11.09,12.26,0,24.41-3.16,36.48-9.49,12.06-6.32,22.18-15.13,30.35-26.41l14.01,12.84c-9.54,13.04-19.55,22.91-30.06,29.62-10.51,6.71-20.77,11.24-30.79,13.57-10.02,2.33-19.02,3.5-27,3.5-14.98,0-28.6-2.68-40.86-8.03-12.26-5.35-22.81-12.74-31.67-22.18-8.86-9.43-15.66-20.43-20.43-32.98-4.77-12.55-7.15-26.12-7.15-40.71,0-13.23,2.14-26.36,6.42-39.4,4.28-13.03,10.65-24.85,19.12-35.46,8.46-10.6,19.12-19.07,31.96-25.39,12.84-6.32,27.73-9.49,44.65-9.49,7.59,0,15.91,1.22,24.95,3.65,9.05,2.44,17.56,5.98,25.54,10.65l-1.17-12.26h22.47v68h-18.97Z" style="fill:#f0f4ef;"/></svg>